<?xml version="1.0" encoding="UTF-8"?><svg id="Layer_1" xmlns="http://www.w3.org/2000/svg" viewBox="0 0 126.09 37.98"><defs><style>.cls-1{fill:#f90;}.cls-2{fill:#05192d;}</style></defs><path class="cls-1" d="M48.83,37.98c-.67-.06-1.35-.13-2.02-.19-8.47-.71-16.26-3.4-23.3-8.16-1.8-1.21-3.45-2.64-5.16-3.97-.1-.08-.2-.17-.3-.26-.27-.26-.46-.57-.2-.92.26-.35.61-.25.94-.08.07.04.14.08.22.12,6.81,3.89,14.1,6.42,21.83,7.71,3.21.54,6.45.84,9.7.91,9.1.18,17.84-1.55,26.25-4.98.33-.13.72-.28,1.04-.22.31.05.71.3.83.57.11.25-.05.66-.19.95-.1.2-.36.33-.56.48-3.93,2.81-8.29,4.71-12.91,6.04-3.66,1.05-7.39,1.72-11.2,1.92-.19.01-.39.06-.58.09h-4.39Z"/><path class="cls-2" d="M26.59,3.78c1-2.26,2.64-3.53,5.16-3.55,2.55-.03,4.09,1.36,5.07,3.65.14-.27.24-.47.35-.67,1.77-3.4,6.69-4.04,9.27-1.2.88.97,1.22,2.16,1.27,3.42.05,1.36.02,2.72.02,4.08,0,3.83,0,7.66,0,11.49,0,.81-.22,1.03-1.03,1.03-1.11,0-2.23,0-3.34,0-.73,0-.98-.26-.98-1,0-3.57,0-7.13,0-10.7,0-.91.01-1.82-.02-2.73-.05-1.43-.66-2.17-1.88-2.35-1.25-.19-2.49.51-2.84,1.74-.22.79-.32,1.63-.33,2.45-.03,3.81-.01,7.63-.02,11.44,0,.96-.17,1.13-1.13,1.13-1.1,0-2.19,0-3.29,0-.7,0-.92-.22-.92-.93,0-4,.01-7.99-.01-11.99,0-.76-.08-1.53-.25-2.26-.24-1.04-.91-1.56-1.88-1.63-1.19-.09-1.99.34-2.46,1.3-.48,1-.51,2.09-.52,3.16-.02,3.75,0,7.5,0,11.25,0,.93-.16,1.1-1.1,1.1-1.11,0-2.23,0-3.34,0-.66,0-.9-.24-.9-.9,0-6.52,0-13.04,0-19.56,0-.67.23-.91.89-.91,1.1,0,2.19,0,3.29,0,.68,0,.92.25.92.94,0,.73,0,1.46,0,2.19h0Z"/><path class="cls-2" d="M63.43,19.52c-.45.4-.86.78-1.3,1.13-2.24,1.79-4.78,2.07-7.43,1.25-1.96-.61-3.04-2.12-3.4-4.11-.44-2.49.01-4.76,1.91-6.58,1.15-1.1,2.57-1.7,4.11-1.98,1.62-.29,3.25-.48,4.88-.67.4-.05.51-.2.48-.56-.04-.54-.04-1.09-.1-1.64-.16-1.35-1.13-2.17-2.56-2.2-1.59-.03-2.71.79-3.16,2.32-.18.61-.43.78-1.06.7-1.06-.12-2.11-.24-3.17-.36-.74-.09-.95-.37-.78-1.1.48-2.1,1.64-3.71,3.6-4.61,3.04-1.4,6.17-1.51,9.27-.23,2.1.86,3.23,2.54,3.31,4.79.1,2.92.1,5.84.08,8.75,0,1.34.35,2.51,1.19,3.54.14.17.27.34.37.53.17.34.18.66-.14.94-.97.83-1.93,1.67-2.91,2.49-.36.3-.78.35-1.12,0-.61-.63-1.18-1.3-1.75-1.96-.12-.13-.21-.29-.32-.45h0ZM62.66,12.89c0-.28-.02-.56,0-.84.03-.34-.13-.45-.44-.41-.9.13-1.83.16-2.69.4-2.71.75-3.03,3.17-2.45,4.84.34.98,1.14,1.52,2.17,1.5,1.22-.03,2.03-.71,2.63-1.7.71-1.17.79-2.47.78-3.79h0Z"/><path class="cls-2" d="M12.26,19.67c-.91.64-1.76,1.41-2.75,1.9-1.94.96-4.01,1.03-6.05.32C1.34,21.16.04,19.14,0,16.69c-.07-4.03,2.04-6.61,6.19-7.45,1.72-.35,3.47-.52,5.29-.79.07-1.05.13-2.16-.43-3.17-.51-.92-1.9-1.33-3.16-1-1.15.3-1.92.99-2.21,2.18-.16.66-.41.81-1.07.73-1.07-.12-2.14-.24-3.21-.36-.63-.07-.85-.36-.73-.96C1.19,3.37,2.68,1.68,5.04.79,7.54-.15,10.1-.23,12.66.54c2.77.83,4.22,2.72,4.27,5.6.05,2.78.05,5.57.03,8.35,0,1.28.34,2.41,1.14,3.41.13.17.27.34.38.52.27.43.21.76-.18,1.09-.92.79-1.84,1.58-2.76,2.36-.46.39-.85.42-1.27,0-.71-.73-1.38-1.51-2.01-2.21h0ZM11.48,11.69c-.88-.13-2.56.12-3.44.44-2.34.85-2.65,3.08-2.17,4.61.39,1.27,1.52,1.89,2.81,1.57,1.24-.31,1.93-1.22,2.39-2.33.57-1.38.4-2.83.41-4.28h0Z"/><path class="cls-2" d="M115.21,4.14c.26-.49.52-.98.79-1.47,1.89-3.43,7.45-3.1,9.15.03.5.92.73,1.92.82,2.95.08.94.12,1.89.12,2.83.01,4.18,0,8.36,0,12.54,0,.83-.2,1.02-1.03,1.02h-3.24c-.91,0-1.09-.18-1.09-1.07,0-3.96.01-7.93-.01-11.89,0-.74-.12-1.49-.28-2.21-.18-.81-.62-1.46-1.52-1.65-.98-.21-1.76.13-2.4.85-.67.75-.88,1.7-.99,2.66-.09.77-.11,1.55-.11,2.33-.01,3.33,0,6.67,0,10,0,.77-.2.98-.97.98-1.16,0-2.33,0-3.49,0-.64,0-.88-.24-.88-.87,0-6.55,0-13.1,0-19.65,0-.6.25-.84.85-.85,1.11,0,2.22,0,3.34,0,.65,0,.86.22.86.87,0,.86,0,1.72,0,2.58.03,0,.06.01.09.02h0Z"/><path class="cls-2" d="M107.24,11.44c-.1,2.44-.55,4.76-1.8,6.88-2.7,4.62-8.21,5.03-11.45,2.95-1.93-1.24-3.15-3.03-3.8-5.18-1.23-4.03-1.13-8,.94-11.75,2.83-5.12,9.21-4.97,12.34-2.31,1.78,1.52,2.78,3.49,3.25,5.73.26,1.21.35,2.45.52,3.68h0ZM101.51,11.52s-.1-.01-.14-.02c0-.36,0-.73,0-1.09-.04-1.44-.15-2.88-.61-4.26-.34-1.03-1.01-1.7-2.13-1.81-1.21-.12-2.13.35-2.64,1.44-.29.62-.49,1.31-.6,1.98-.32,2.01-.3,4.04-.07,6.05.12,1.05.43,2.11.8,3.1.33.88,1.07,1.4,2.04,1.42.99.02,1.77-.41,2.27-1.26.23-.4.46-.83.53-1.28.22-1.42.38-2.85.55-4.27h0Z"/><path class="cls-2" d="M80.28,4.91h-6.24c-1,0-1.16-.15-1.16-1.14V1.68c0-.92.18-1.09,1.12-1.09h11.51c.3,0,.6-.01.9,0,.51.03.76.28.77.79.01.78.07,1.57-.02,2.34-.05.43-.28.88-.54,1.25-2.21,3.19-4.44,6.36-6.67,9.54-.1.15-.2.29-.29.44,1.16.12,2.3.19,3.43.35,1.27.18,2.47.61,3.62,1.2.61.31.88.78.88,1.43,0,.88.01,1.76,0,2.64-.01.83-.46,1.09-1.21.74-4.35-2.04-8.71-2.05-13.06.02-.72.34-1.15.08-1.15-.72,0-.94,0-1.89,0-2.84-.01-.81.22-1.51.69-2.18,2.38-3.39,4.75-6.79,7.12-10.19.09-.13.17-.27.32-.49h0Z"/><path class="cls-1" d="M77.87,25.46c-1.56.14-3.06.28-4.56.42-.23.02-.46.07-.69.05-.15,0-.39-.08-.42-.17-.05-.17-.02-.41.08-.54.14-.19.36-.34.57-.47,2.01-1.26,4.25-1.73,6.58-1.8,1.36-.04,2.72.02,4.04.42.94.28,1.18.51,1.16,1.47-.1,3.88-1.37,7.28-4.21,10.02-.27.26-.59.61-.99.32-.37-.27-.05-.64.05-.95.63-1.93,1.28-3.86,1.89-5.79.12-.37.14-.78.15-1.18.02-.9-.29-1.34-1.18-1.5-.83-.15-1.67-.2-2.47-.29h0Z"/></svg>